<svg width="30" height="30" viewBox="0 0 30 30" fill="none" xmlns="http://www.w3.org/2000/svg">
<path fill-rule="evenodd" clip-rule="evenodd" d="M12.6677 21.2831C12.6477 21.3355 12.6251 21.3868 12.6 21.4369C12.2967 22.2953 12.2778 23.2285 12.546 24.0985C12.8142 24.9685 13.3553 25.7291 14.0892 26.2677C15.0615 27.0308 15.2523 27.3508 15.1538 28.0646C15.0431 28.672 14.813 29.2513 14.4769 29.7692C9.40209 29.5981 4.47271 28.0309 0.230769 25.24V22.9631C0.230769 22.3908 0.230769 21.8369 0.292308 21.2831H12.6677ZM29.7077 21.2831C29.7385 21.8369 29.7692 22.3908 29.7692 22.9631V25.2338C26.0234 27.7012 21.7343 29.2217 17.2708 29.6646C17.4238 29.267 17.5352 28.8545 17.6031 28.4338C17.9292 26.1385 16.4769 25.0062 15.6092 24.3292C15.2908 24.1177 15.0507 23.8073 14.9262 23.4459C14.8016 23.0844 14.7994 22.692 14.92 22.3292C15.0625 21.9668 15.2463 21.6219 15.4677 21.3015H29.7077V21.2831ZM12.8462 11.0554L15.5538 15.0369L12.9938 18.8092H7.57846L12.8462 11.0554ZM15 0.230769C18.7929 1.83833 22.1115 4.38923 24.6406 7.641C27.1696 10.8928 28.8249 14.7373 29.4492 18.8092H25.8308L20.4338 10.8708C20.3146 10.7116 20.16 10.5823 19.9821 10.4933C19.8043 10.4043 19.6081 10.3579 19.4092 10.3579C19.2103 10.3579 19.0142 10.4043 18.8363 10.4933C18.6585 10.5823 18.5038 10.7116 18.3846 10.8708L17.0492 12.8338L13.8677 8.15692C13.7477 7.99882 13.5928 7.87062 13.4151 7.78236C13.2373 7.6941 13.0415 7.64817 12.8431 7.64817C12.6446 7.64817 12.4488 7.6941 12.2711 7.78236C12.0933 7.87062 11.9384 7.99882 11.8185 8.15692L4.58769 18.8092H0.550769C1.17505 14.7373 2.83038 10.8928 5.35942 7.641C7.88845 4.38923 11.2071 1.83833 15 0.230769ZM19.4123 13.7692L22.8338 18.8092H15.9908L19.4123 13.7692Z" fill="black"/>
</svg>
