<svg width="29" height="29" viewBox="0 0 29 29" fill="none" xmlns="http://www.w3.org/2000/svg">
<path d="M14.7867 0.108C14.5467 -0.036 14.2107 -0.036 13.9707 0.108C5.37874 3.75601 -0.141249 12.252 0.00275112 21.612V23.676C0.00275112 24.012 0.146751 24.3 0.434741 24.492C4.56274 27.228 9.45874 28.764 14.4027 28.812H14.9307C19.6827 28.62 24.3387 27.18 28.2747 24.492C28.5147 24.3 28.7067 24.012 28.7067 23.676V21.612C28.9467 12.252 23.4267 3.75601 14.7867 0.108ZM7.01074 7.69201C10.5147 3.56401 14.4027 2.17201 14.4027 2.17201C15.2187 2.55601 24.5787 6.20401 26.4987 18.012H24.0507L19.3467 11.244C19.0107 10.812 18.3867 10.668 17.9067 11.004C17.7627 11.052 17.7147 11.196 17.6667 11.244L16.4667 12.972L13.1547 8.22001C12.8187 7.78801 12.1947 7.64401 11.7147 7.98001C11.5707 8.02801 11.5227 8.17201 11.4747 8.22001L4.80274 17.964L2.35474 18.06C3.07474 13.548 4.94674 10.188 7.01074 7.69201ZM21.5547 18.06H15.4587L17.0427 15.804L18.4827 13.692L21.5547 18.06ZM12.9147 11.34L15.3147 14.796L13.0587 18.012H7.25074L9.69874 14.364L12.2907 10.524L12.9147 11.34ZM15.2187 25.26L14.3547 26.796C12.5787 26.796 10.9467 26.556 9.07474 26.124C6.62674 25.5 4.22674 24.492 2.11474 23.196V21.708C2.11474 21.228 2.11474 20.7 2.16274 20.124H12.7707C11.9547 21.372 12.3387 23.052 13.6347 23.82C13.7787 23.868 13.8747 23.964 13.9707 24.012L14.9307 24.444C15.2187 24.54 15.3147 24.924 15.2187 25.26ZM26.7387 23.1C25.1547 24.06 23.5227 24.876 21.8427 25.404C21.8427 25.404 21.5067 25.548 21.4107 25.548C20.4507 25.884 19.4907 26.124 18.4827 26.316C17.9067 26.46 17.3307 26.508 16.8027 26.556L16.9947 26.22C17.7627 24.924 17.3307 23.292 15.9867 22.524C15.9387 22.476 15.7947 22.476 15.7467 22.38L14.7867 21.948C14.4507 21.804 14.3067 21.468 14.4507 21.132C14.4507 21.084 14.4987 20.988 14.4987 20.988L15.3627 19.98H26.6427C26.6427 20.46 26.6907 20.988 26.6907 21.564V23.1H26.7387Z" fill="white"/>
</svg>
